# xmcd
#
# Track frame offsets: 
#        150
#        11906
#        24467
#        33827
#        42946
#        52677
#        62455
#        71755
#        82442
#        94019
#        103653
#        116766
#        126437
#        137502
#        147695
#        162947
#        172725
#        183799
#        196974
#        208380
#        218574
#        231427
#
# Disc length: 3257 seconds
#
# Revision: 1
# Processed by: cddbd v1.5.2PL0 Copyright (c) Steve Scherf et al.
# Submitted via: ExactAudioCopyFreeDBPlugin 1.0
#
DISCID=3e0cb716
DTITLE=King Curtis - The Complete Atco Singles [Rhino Real Gone Music]
DYEAR=2015
DGENRE=Rhythm and Blues
TTITLE0=The Birth of the Blues
TTITLE1=Jest Smoochin'
TTITLE2=Ific
TTITLE3=You Made Me Love You
TTITLE4=Castle Rock
TTITLE5=Chili
TTITLE6=Honeydripper (Part 1)
TTITLE7=Honeydripper (Part 2)
TTITLE8=Heavenly Blues
TTITLE9=Restless Guitar
TTITLE10=Spanish Harlem
TTITLE11=Boss
TTITLE12=Quicksand
TTITLE13=On Broadway
TTITLE14=You've Lost That Loving Feeling
TTITLE15=Make the World Go Away
TTITLE16=Dancing in the Streets
TTITLE17=He'll Have to Go
TTITLE18=Pots and Pans (Part 1)
TTITLE19=Pots and Pans (Part 2)
TTITLE20=Something on Your Mind
TTITLE21=Soul Theme
EXTD=
EXTT0=
EXTT1=
EXTT2=
EXTT3=
EXTT4=
EXTT5=
EXTT6=
EXTT7=
EXTT8=
EXTT9=
EXTT10=
EXTT11=
EXTT12=
EXTT13=
EXTT14=
EXTT15=
EXTT16=
EXTT17=
EXTT18=
EXTT19=
EXTT20=
EXTT21=
PLAYORDER=
